<svg xmlns="http://www.w3.org/2000/svg" xmlns:xlink="http://www.w3.org/1999/xlink" viewBox="0 0 1050 800" width="1050" height="800" preserveAspectRatio="xMidYMid meet" style="width: 100%; height: 100%; transform: translate3d(0px, 0px, 0px); content-visibility: visible;"><defs><clipPath id="__lottie_element_116"><rect width="1050" height="800" x="0" y="0"></rect></clipPath><clipPath id="__lottie_element_122"><path fill="#ffffff" clip-rule="nonzero" d=" M-7.633999824523926,-312 C-7.633999824523926,-312 -7.633999824523926,302 -7.633999824523926,302 C-7.633999824523926,302 434.3680114746094,302 434.3680114746094,302 C434.3680114746094,302 434.3680114746094,-312 434.3680114746094,-312 C434.3680114746094,-312 -7.633999824523926,-312 -7.633999824523926,-312" fill-opacity="1"></path></clipPath></defs><g clip-path="url(#__lottie_element_116)"><g style="display: block;" transform="matrix(-0.5877828001976013,0.8090187311172485,-0.8090187311172485,-0.5877828001976013,281.37896728515625,418.5380554199219)" opacity="1"><path fill="#FFFFFF" fill-opacity="1" d=" M386,48 C386,48 -359.0610046386719,52.04499816894531 -359.0610046386719,52.04499816894531 C-359.0610046386719,52.04499816894531 -438.91400146484375,-57.75299835205078 -438.91400146484375,-57.75299835205078 C-438.91400146484375,-57.75299835205078 306,-62 306,-62 C306,-62 386,48 386,48z"></path></g><g style="display: block;" transform="matrix(0.5877863168716431,0.809016227722168,-0.809016227722168,0.5877863168716431,330.294921875,426.7669677734375)" opacity="1"><path fill="#FFFFFF" fill-opacity="1" d=" M297.33099365234375,59.93299865722656 C297.33099365234375,59.93299865722656 -442,48 -442,48 C-442,48 -358.32598876953125,-67.05599975585938 -358.32598876953125,-67.05599975585938 C-358.32598876953125,-67.05599975585938 381.739013671875,-56.1349983215332 381.739013671875,-56.1349983215332 C381.739013671875,-56.1349983215332 297.33099365234375,59.93299865722656 297.33099365234375,59.93299865722656z"></path></g><g transform="matrix(0.9983485341072083,0,0,1,552.9537353515625,407)" opacity="1" style="display: none;"><path fill="#FFFFFF" fill-opacity="1" d=" M306,48 C306,48 -362,48 -362,48 C-362,48 -362,-62 -362,-62 C-362,-62 306,-62 306,-62 C306,-62 306,48 306,48z"></path></g><g clip-path="url(#__lottie_element_122)" style="display: block;" transform="matrix(1,-0.0000013234325706434902,0.0000013234325706434902,1,604.99951171875,400.6247253417969)" opacity="1"><path fill="#FFFFFF" fill-opacity="1" d=" M366.8190002441406,-270.4570007324219 C402.4540100097656,-242.76300048828125 420.2699890136719,-202.4969940185547 420.2699890136719,-149.85699462890625 C420.2699890136719,-121.572998046875 413.6180114746094,-92.99700164794922 400.39898681640625,-64.12200164794922 C387.17999267578125,-35.24700164794922 367.7980041503906,-5.980999946594238 342.3450012207031,23.67799949645996 C316.8919982910156,53.33700180053711 286.05499267578125,83.29199981689453 249.83299255371094,113.53900146484375 C213.61099243164062,143.78599548339844 172.29800415039062,174.42999267578125 125.79900360107422,205.46099853515625 C125.79900360107422,205.46099853515625 434.3680114746094,205.46099853515625 434.3680114746094,205.46099853515625 C434.3680114746094,205.46099853515625 434.3680114746094,302 434.3680114746094,302 C434.3680114746094,302 -7.633999824523926,302 -7.633999824523926,302 C-7.633999824523926,302 -7.633999824523926,208.80099487304688 -7.633999824523926,208.80099487304688 C40.435001373291016,170.00799560546875 83.9000015258789,134.16000366210938 122.56900024414062,101.45800018310547 C161.23800659179688,68.75599670410156 194.1300048828125,38.2140007019043 221.2469940185547,9.930000305175781 C248.36399841308594,-18.354000091552734 269.0870056152344,-45.18600082397461 283.4119873046875,-70.30799865722656 C297.8030090332031,-95.5469970703125 304.947998046875,-120.0999984741211 304.947998046875,-143.96600341796875 C304.947998046875,-170.5800018310547 297.2149963378906,-191.10499572753906 281.74700927734375,-205.54200744628906 C266.27899169921875,-219.97900390625 244.447998046875,-227.1479949951172 216.25399780273438,-227.1479949951172 C203.5279998779297,-227.1479949951172 191.12600708007812,-224.9980010986328 178.95700073242188,-220.86300659179688 C166.81500244140625,-216.73800659179688 155.85000610351562,-209.86399841308594 146.16000366210938,-200.43499755859375 C136.47000122070312,-191.00599670410156 128.73399353027344,-178.53500366210938 122.95899963378906,-163.01800537109375 C117.18399810791016,-147.50100708007812 114.24800109863281,-128.64500427246094 114.24800109863281,-106.4489974975586 C114.24800109863281,-106.4489974975586 3.134999990463257,-106.4489974975586 3.134999990463257,-106.4489974975586 C2.546999931335449,-137.48300170898438 7.541999816894531,-165.66600036621094 18.016000747680664,-190.9080047607422 C28.489999771118164,-216.14999389648438 43.270999908447266,-237.75399780273438 62.361000061035156,-255.8249969482422 C81.45099639892578,-273.89599609375 104.65399932861328,-287.739990234375 132.06399536132812,-297.4639892578125 C159.4739990234375,-307.18798828125 189.7239990234375,-312 222.91200256347656,-312 C283.2149963378906,-312 331.18499755859375,-298.15301513671875 366.8190002441406,-270.3580017089844 C366.8190002441406,-270.3580017089844 366.8190002441406,-270.4570007324219 366.8190002441406,-270.4570007324219z"></path></g></g></svg>