<svg xmlns:xlink="http://www.w3.org/1999/xlink" width="160" height="24" viewBox="0 0 160 24" fill="none" xmlns="http://www.w3.org/2000/svg"><path d="M2 4.78547V1.38727H19.2779V4.78547H12.7166V22.62H8.53022V4.78547H2Z" fill="#FFFFFF"></path><path d="M20.9167 22.62V1.38727H25.1031V22.62H20.9167Z" fill="#FFFFFF"></path><path d="M31.5775 6.65915V22.62H27.6815V1.38727H33.7727L38.927 17.9358L43.9362 1.38727H50.0861V22.62H46.1901V6.65915L40.977 22.62H36.8183L31.5775 6.65915Z" fill="#FFFFFF"></path><path d="M68.2114 1.38727V4.78547H56.9348V10.0574H67.5961V13.4556H56.9348V19.2252H68.2114V22.6234H52.7484V1.38727H68.2114Z" fill="#FFFFFF"></path><path d="M73.3796 12.5739C72.6087 12.2628 71.9346 11.8549 71.3607 11.3571C70.7834 10.8593 70.3271 10.2647 69.9849 9.56983C69.6426 8.87844 69.4732 8.07296 69.4732 7.15341C69.4732 6.07829 69.7325 5.15874 70.2476 4.38437C70.7661 3.61347 71.4299 2.97739 72.2388 2.47958C73.0477 1.98178 73.9569 1.61188 74.9629 1.36644C75.9689 1.12099 76.9576 1 77.9359 1C79.0283 1 80.0689 1.15556 81.0541 1.47015C82.0393 1.78128 82.9139 2.22722 83.6745 2.80108C84.435 3.3784 85.0469 4.0767 85.5032 4.89601C85.963 5.71531 86.2223 6.63486 86.2776 7.64775H82.2364C82.1569 7.02204 81.9736 6.50004 81.6798 6.08175C81.386 5.66345 81.0368 5.32121 80.6254 5.05848C80.214 4.79575 79.7577 4.60908 79.2496 4.50191C78.7414 4.39475 78.2436 4.33943 77.7561 4.33943C77.2687 4.33943 76.7813 4.38783 76.2904 4.48463C75.803 4.58142 75.3639 4.73353 74.9733 4.93749C74.5826 5.14145 74.2646 5.41455 74.0226 5.75679C73.7772 6.09903 73.6562 6.5035 73.6562 6.97365C73.6562 7.71689 73.9327 8.30112 74.4928 8.72979C75.0493 9.15845 75.758 9.45229 76.6153 9.60786L79.3982 10.1057C80.2555 10.2612 81.1198 10.4756 81.9909 10.7487C82.8586 11.0218 83.6399 11.3986 84.3348 11.8756C85.0261 12.3527 85.5896 12.968 86.0183 13.7217C86.447 14.4718 86.6613 15.3948 86.6613 16.4907C86.6613 17.5865 86.4124 18.5372 85.9146 19.3461C85.4168 20.1551 84.7634 20.8361 83.951 21.3823C83.1386 21.9285 82.2225 22.333 81.1993 22.5992C80.1726 22.8619 79.1251 22.9932 78.05 22.9932C76.7433 22.9932 75.5575 22.8239 74.4928 22.4816C73.428 22.1394 72.505 21.6519 71.7237 21.0159C70.9425 20.3798 70.3167 19.6089 69.8501 18.7031C69.3799 17.794 69.0999 16.7638 68.9996 15.6126H73.0408C73.1584 16.3939 73.3727 17.0438 73.6838 17.5589C73.995 18.074 74.3821 18.4923 74.8419 18.8034C75.3017 19.1145 75.8168 19.3358 76.3941 19.4637C76.9714 19.5916 77.5695 19.6538 78.1952 19.6538C78.6653 19.6538 79.1458 19.6054 79.6436 19.5086C80.1415 19.4118 80.6012 19.2493 81.0195 19.0246C81.4378 18.7999 81.7801 18.4992 82.0462 18.1155C82.309 17.7352 82.4403 17.2616 82.4403 16.6946C82.4403 16.2452 82.3435 15.8615 82.1465 15.5366C81.9494 15.2151 81.6763 14.942 81.3272 14.7173C80.978 14.4926 80.5597 14.3059 80.0827 14.1607C79.6056 14.0155 79.0836 13.891 78.5167 13.7942L75.8237 13.2964C74.9629 13.1201 74.1505 12.8782 73.3796 12.5636V12.5739Z" fill="#FFFFFF"></path><path d="M92.9252 4.78547V1.38727H110.203V4.78547H103.642V22.62H99.4554V4.78547H92.9252Z" fill="#FFFFFF"></path><path d="M132.666 1.38727H136.942L132.227 22.62H127.277L124.055 6.80434L120.833 22.62H115.883L111.167 1.38727H115.502L118.665 16.8503L121.625 1.38727H126.516L129.766 16.9367L132.666 1.38727Z" fill="#FFFFFF"></path><path d="M156.326 16.4838C155.839 17.8423 155.14 19.0039 154.231 19.9684C153.322 20.9363 152.23 21.683 150.951 22.2085C149.672 22.734 148.24 23.0001 146.661 23.0001C145.081 23.0001 143.65 22.7374 142.37 22.2085C141.091 21.6796 139.999 20.9329 139.09 19.9684C138.181 19.0004 137.482 17.8389 136.995 16.4838C136.507 15.1252 136.262 13.6283 136.262 11.9897C136.262 10.3511 136.507 8.85076 136.995 7.49563C137.482 6.13704 138.181 4.98241 139.09 4.02483C139.999 3.06725 141.091 2.32746 142.37 1.79854C143.65 1.26963 145.081 1.0069 146.661 1.0069C148.24 1.0069 149.672 1.26963 150.951 1.79854C152.23 2.324 153.322 3.06725 154.231 4.02483C155.14 4.98241 155.835 6.13704 156.326 7.49563C156.817 8.85422 157.059 10.3511 157.059 11.9897C157.059 13.6283 156.814 15.1286 156.326 16.4838ZM141.084 15.298C141.406 16.2556 141.842 17.0542 142.388 17.7006C142.934 18.3471 143.58 18.8345 144.32 19.1664C145.063 19.4982 145.845 19.6642 146.664 19.6642C147.483 19.6642 148.265 19.4982 149.008 19.1664C149.751 18.8345 150.394 18.3471 150.94 17.7006C151.486 17.0576 151.922 16.2556 152.244 15.298C152.565 14.3404 152.728 13.2377 152.728 11.9897C152.728 10.7417 152.565 9.64241 152.244 8.6952C151.922 7.74799 151.486 6.95289 150.94 6.30989C150.394 5.66689 149.748 5.176 149.008 4.84413C148.265 4.51227 147.483 4.34633 146.664 4.34633C145.845 4.34633 145.063 4.51227 144.32 4.84413C143.577 5.176 142.934 5.66344 142.388 6.30989C141.842 6.95289 141.406 7.75145 141.084 8.6952C140.763 9.64241 140.6 10.7417 140.6 11.9897C140.6 13.2377 140.759 14.3439 141.084 15.298Z" fill="#FFFFFF"></path></svg>